# xmcd
#
# Track frame offsets:
#	150
#	20057
#	42347
#	65130
#	82572
#	101874
#	118513
#	140988
#	158286
#	171066
#	195893
#	215670
#	241261
#	257281
#	275647
#
# Disc length: 3893 seconds
#
# Revision: 1
# Processed by: cddbd v1.5.2PL0 Copyright (c) Steve Scherf et al.
# Submitted via: EasyCDDAExtractor 15.3.0.1
#
DISCID=cb0f330f
DTITLE=Pablo Alboran - Tour Terral - Tres Noches En Las Ventas - CD 2
DYEAR=2015
DGENRE=Latin
TTITLE0=Caramelo
TTITLE1=Quien (Con Alejandro Sanz)
TTITLE2=Gracias
TTITLE3=Donde Esta El Amor
TTITLE4=Tanto
TTITLE5=Extasis
TTITLE6=Volver A Empezar
TTITLE7=Solamente Tu
TTITLE8=En Casa Del Herrero
TTITLE9=Por Fin (Con Bebe)
TTITLE10=Despidete
TTITLE11=Vivela
TTITLE12=Entre Un Compas (Bonus Track)
TTITLE13=Desencuentro (Acustico) (Bonus Track)
TTITLE14=Vivela (Acustico) (Bonus Track)
EXTD=
EXTT0=
EXTT1=
EXTT2=
EXTT3=
EXTT4=
EXTT5=
EXTT6=
EXTT7=
EXTT8=
EXTT9=
EXTT10=
EXTT11=
EXTT12=
EXTT13=
EXTT14=
PLAYORDER=
